<svg xmlns="http://www.w3.org/2000/svg" xmlns:svg="http://www.w3.org/2000/svg" id="SVGRoot" width="32" height="32" version="1.1" viewBox="0 0 32 32"><defs id="defs34"><marker style="overflow:visible" id="TriangleInM" orient="auto" refX="0" refY="0"><path style="fill-rule:evenodd;stroke:#000;stroke-width:1pt;stroke-opacity:1;fill:#000;fill-opacity:1" id="path1084" d="M 5.77,0.0 L -2.88,5.0 L -2.88,-5.0 L 5.77,0.0 z" transform="scale(-0.4)"/></marker><marker style="overflow:visible" id="TriangleInL" orient="auto" refX="0" refY="0"><path style="fill-rule:evenodd;stroke:#000;stroke-width:1pt;stroke-opacity:1;fill:#000;fill-opacity:1" id="path1081" d="M 5.77,0.0 L -2.88,5.0 L -2.88,-5.0 L 5.77,0.0 z" transform="scale(-0.8)"/></marker></defs><metadata id="metadata37"/><g id="layer1" style="display:inline"><path id="key" d="m 7.5,7.5 c -3.2463846,0.051257 -6.0002295,3.417508 -6,7.5 2.62e-5,4.118754 2.7245216,7.499959 6,7.5 2.809222,-4.97e-4 5.163613,-2.541716 5.736277,-6 H 21.5 v 4 h 3 v -2 h 1 v 4 h 3 v -6 h 1.999999 v -3 H 13.236277 C 12.663612,10.041716 10.309222,7.5004968 7.5,7.5 c -0.024801,-1.956e-4 0.024801,-1.956e-4 0,0 z m 0,2.5 c 1.9378254,-4e-7 3.5,2.223055 3.5,5 0,2.776945 -1.5621743,5 -3.5,5 -1.9378256,0 -3.5000002,-2.223055 -3.5,-5 2e-7,-2.776945 1.5621747,-5.0000001 3.5,-5 z" style="fill:#fff;fill-rule:evenodd;stroke:#000;stroke-width:1;stroke-miterlimit:4;stroke-dasharray:none;stroke-opacity:1"/></g><g id="layer2" style="display:inline"><circle style="fill:#00a000;fill-opacity:1;stroke:#000;stroke-width:1;stroke-miterlimit:4;stroke-dasharray:none;stroke-opacity:1" id="orb-green" cx="23" cy="23" r="8.5"/><path id="arrow-up" d="m 21.124999,29.000001 v -6.545455 h -3.124998 l 4.999998,-5.454545 5,5.454545 H 24.875 v 6.545455 z" style="fill:#fff;fill-opacity:1;stroke:#000;stroke-width:0;stroke-miterlimit:4;stroke-dasharray:none;stroke-opacity:1"/></g><g id="g20" style="display:none"><circle style="fill:#005ab4;fill-opacity:1;stroke:#000;stroke-width:1;stroke-miterlimit:4;stroke-dasharray:none;stroke-opacity:1" id="orb-blue" cx="23" cy="23" r="8.5"/><path id="arrow-down" d="m 21.125,17 v 6.545454 H 18.000001 L 23,28.999999 27.999999,23.545454 H 24.875 V 17 Z" style="fill:#fff;fill-opacity:1;stroke:#000;stroke-width:0;stroke-miterlimit:4;stroke-dasharray:none;stroke-opacity:1"/></g><g id="g858" style="display:none"><circle style="fill:#f07800;fill-opacity:1;stroke:#000;stroke-width:1;stroke-miterlimit:4;stroke-dasharray:none;stroke-opacity:1" id="circle854" cx="23" cy="23" r="8.5"/><rect style="fill:#fff;fill-opacity:1;stroke:none;stroke-width:1.00001" id="rect862" width="7.071" height="7.071" x="-3.536" y="28.991" transform="rotate(-45.000001)"/></g></svg>