<?xml version="1.0" encoding="UTF-8" standalone="no"?>
<svg
   xmlns:dc="http://purl.org/dc/elements/1.1/"
   xmlns:cc="http://creativecommons.org/ns#"
   xmlns:rdf="http://www.w3.org/1999/02/22-rdf-syntax-ns#"
   xmlns:svg="http://www.w3.org/2000/svg"
   xmlns="http://www.w3.org/2000/svg"
   xmlns:sodipodi="http://sodipodi.sourceforge.net/DTD/sodipodi-0.dtd"
   xmlns:inkscape="http://www.inkscape.org/namespaces/inkscape"
   width="32.0px"
   height="32.0px"
   viewBox="0 0 32.0 32.0"
   version="1.1"
   id="SVGRoot"
   sodipodi:docname="icon.svg"
   inkscape:version="1.0.1 (3bc2e813f5, 2020-09-07)">
  <defs
     id="defs34">
    <marker
       style="overflow:visible"
       id="TriangleInM"
       refX="0.0"
       refY="0.0"
       orient="auto"
       inkscape:stockid="TriangleInM"
       inkscape:isstock="true">
      <path
         transform="scale(-0.4)"
         style="fill-rule:evenodd;stroke:#000000;stroke-width:1pt;stroke-opacity:1;fill:#000000;fill-opacity:1"
         d="M 5.77,0.0 L -2.88,5.0 L -2.88,-5.0 L 5.77,0.0 z "
         id="path1084" />
    </marker>
    <marker
       style="overflow:visible"
       id="TriangleInL"
       refX="0.0"
       refY="0.0"
       orient="auto"
       inkscape:stockid="TriangleInL"
       inkscape:isstock="true">
      <path
         transform="scale(-0.8)"
         style="fill-rule:evenodd;stroke:#000000;stroke-width:1pt;stroke-opacity:1;fill:#000000;fill-opacity:1"
         d="M 5.77,0.0 L -2.88,5.0 L -2.88,-5.0 L 5.77,0.0 z "
         id="path1081" />
    </marker>
  </defs>
  <sodipodi:namedview
     id="base"
     pagecolor="#ffffff"
     bordercolor="#666666"
     borderopacity="1.0"
     inkscape:pageopacity="0.0"
     inkscape:pageshadow="2"
     inkscape:zoom="33.941125"
     inkscape:cx="20.573126"
     inkscape:cy="22.325005"
     inkscape:document-units="px"
     inkscape:current-layer="layer2"
     inkscape:document-rotation="0"
     showgrid="true"
     inkscape:window-width="2625"
     inkscape:window-height="1640"
     inkscape:window-x="-12"
     inkscape:window-y="-12"
     inkscape:window-maximized="1"
     inkscape:pagecheckerboard="true">
    <inkscape:grid
       type="xygrid"
       id="grid43" />
  </sodipodi:namedview>
  <metadata
     id="metadata37">
    <rdf:RDF>
      <cc:Work
         rdf:about="">
        <dc:format>image/svg+xml</dc:format>
        <dc:type
           rdf:resource="http://purl.org/dc/dcmitype/StillImage" />
        <dc:title></dc:title>
      </cc:Work>
    </rdf:RDF>
  </metadata>
  <g
     inkscape:label="icon"
     inkscape:groupmode="layer"
     id="layer1">
    <path
       id="key"
       style="fill:#ffffff;fill-rule:evenodd;stroke:#000000;stroke-width:1.16785;stroke-miterlimit:4;stroke-dasharray:none;stroke-opacity:1"
       d="M 7.4257812 7.5839844 A 5.9160752 7.4160752 0 0 0 1.5839844 15 A 5.9160752 7.4160752 0 0 0 7.5 22.416016 A 5.9160752 7.4160752 0 0 0 13.291016 16.511719 L 21.5 16.511719 L 21.5 20.5 L 24.5 20.5 L 24.5 18.5 L 25.5 18.5 L 25.5 22.5 L 28.5 22.5 L 28.5 16.511719 L 30.511719 16.511719 L 30.511719 13.488281 L 13.291016 13.488281 A 5.9160752 7.4160752 0 0 0 7.5 7.5839844 A 5.9160752 7.4160752 0 0 0 7.4257812 7.5839844 z M 7.5 10 A 3.5 5 0 0 1 11 15 A 3.5 5 0 0 1 7.5 20 A 3.5 5 0 0 1 4 15 A 3.5 5 0 0 1 7.5 10 z " />
  </g>
  <g
     inkscape:groupmode="layer"
     id="layer2"
     inkscape:label="overlay-ahead">
    <circle
       style="fill:#00a000;stroke:#000000;stroke-width:1;stroke-miterlimit:4;stroke-dasharray:none;stroke-opacity:1;fill-opacity:1"
       id="orb-green"
       cx="23"
       cy="23"
       r="8.5" />
    <path
       id="arrow-down"
       style="fill:#ffffff;fill-opacity:1;stroke:#000000;stroke-width:0;stroke-miterlimit:4;stroke-dasharray:none;stroke-opacity:1"
       inkscape:transform-center-y="0.8333336"
       d="M 21.5 18 L 21.5 24 L 19 24 L 23 29 L 27 24 L 24.5 24 L 24.5 18 L 21.5 18 z " />
  </g>
</svg>
